<?xml version="1.0" standalone="no"?>
<!DOCTYPE svg PUBLIC "-//W3C//DTD SVG 20010904//EN"
 "http://www.w3.org/TR/2001/REC-SVG-20010904/DTD/svg10.dtd">
<svg version="1.0" xmlns="http://www.w3.org/2000/svg"
 width="96.000000pt" height="96.000000pt" viewBox="0 0 96.000000 96.000000"
 preserveAspectRatio="xMidYMid meet">

<g transform="translate(0.000000,96.000000) scale(0.100000,-0.100000)"
fill="#000000" stroke="none">
<path d="M400 697 c-49 -16 -123 -93 -138 -143 -27 -91 -8 -169 58 -234 93
-94 227 -94 320 0 94 93 94 227 0 320 -65 65 -150 85 -240 57z m136 -111 l1
-49 49 -1 49 -1 0 -55 0 -55 -49 -1 -49 -1 -1 -49 -1 -49 -55 0 -55 0 -1 49
-1 49 -49 1 -49 1 0 55 0 55 50 1 49 1 -3 41 c-1 23 0 46 4 52 4 6 29 10 58 8
l52 -3 1 -49z"/>
</g>
</svg>
